<?xml version="1.0" standalone="no"?>
<!DOCTYPE svg PUBLIC "-//W3C//DTD SVG 20010904//EN"
 "http://www.w3.org/TR/2001/REC-SVG-20010904/DTD/svg10.dtd">
<svg version="1.0" xmlns="http://www.w3.org/2000/svg"
 width="513.000000pt" height="270.000000pt" viewBox="0 0 513.000000 270.000000"
 preserveAspectRatio="xMidYMid meet">

<g transform="translate(0.000000,270.000000) scale(0.100000,-0.100000)"
fill="#000000" stroke="none">
<path d="M1818 2004 c-137 -137 -256 -262 -263 -277 -6 -16 -10 -41 -7 -55 6
-37 494 -529 532 -537 59 -13 120 46 105 103 -3 14 -99 120 -215 241 l-210
216 205 205 c112 113 209 218 215 233 20 56 -10 103 -74 114 l-37 6 -251 -249z"/>
<path d="M2955 2238 c-32 -18 -44 -40 -45 -79 0 -34 13 -49 210 -245 115 -115
210 -213 210 -219 0 -5 -94 -104 -210 -220 -203 -204 -210 -212 -210 -251 1
-61 45 -101 99 -89 35 7 527 499 536 535 3 14 2 35 -2 47 -11 29 -470 501
-505 519 -32 17 -56 17 -83 2z"/>
<path d="M2607 2142 c-16 -18 -47 -84 -47 -100 0 -9 189 -82 211 -82 12 0 39
67 39 99 0 34 -31 62 -90 84 -59 22 -93 21 -113 -1z"/>
<path d="M2511 1907 c-41 -111 -121 -335 -123 -346 -2 -10 29 -27 97 -53 55
-21 105 -38 111 -38 6 0 15 15 21 33 6 17 36 102 67 187 31 85 52 157 48 160
-4 4 -53 23 -110 43 l-103 36 -8 -22z"/>
<path d="M2282 1271 c-17 -55 -15 -75 11 -98 28 -25 99 -53 135 -53 33 0 64
30 81 79 6 19 10 35 9 36 -7 5 -211 75 -217 75 -4 0 -13 -17 -19 -39z"/>
<path d="M4430 829 c-63 -13 -91 -78 -51 -118 11 -11 39 -25 63 -31 65 -17 68
-18 68 -34 0 -23 -38 -30 -66 -11 -31 20 -87 12 -82 -12 6 -30 53 -55 103 -55
64 0 99 26 103 76 4 47 -9 63 -62 76 -73 19 -90 29 -76 45 16 19 49 19 69 1
13 -11 22 -12 45 -2 28 11 28 11 10 34 -23 28 -76 41 -124 31z"/>
<path d="M220 700 l0 -130 29 0 c28 0 30 3 33 43 l3 42 54 5 c93 10 130 82 72
141 -28 27 -34 29 -110 29 l-81 0 0 -130z m151 64 c19 -24 -1 -48 -44 -52 -32
-3 -37 0 -43 22 -3 14 -3 30 1 35 10 17 71 13 86 -5z"/>
<path d="M537 707 c-26 -68 -47 -126 -47 -130 0 -4 13 -7 28 -7 21 0 32 7 40
25 10 22 18 25 62 25 44 0 52 -3 62 -25 8 -18 19 -25 40 -25 15 0 28 3 28 7 0
4 -21 62 -46 130 l-47 123 -37 0 -37 0 -46 -123z m97 7 c11 -29 6 -44 -14 -44
-11 0 -20 6 -20 14 0 21 11 46 20 46 4 0 11 -7 14 -16z"/>
<path d="M860 810 c-25 -25 -27 -81 -2 -102 9 -9 43 -23 75 -32 58 -17 67 -30
34 -50 -13 -8 -25 -6 -52 8 -28 16 -40 17 -60 8 -52 -24 9 -72 93 -72 88 0
132 71 77 125 -13 14 -30 25 -37 25 -33 0 -88 22 -88 35 0 22 46 30 73 12 15
-9 29 -12 45 -6 29 11 28 23 -4 48 -37 29 -126 29 -154 1z"/>
<path d="M1140 745 c0 -129 32 -175 121 -175 39 0 53 5 77 29 34 34 42 66 42
162 l0 69 -30 0 -30 0 0 -79 c0 -64 -4 -83 -21 -105 -24 -31 -52 -33 -79 -6
-17 17 -20 33 -20 105 l0 85 -30 0 -30 0 0 -85z"/>
<path d="M1470 700 l0 -130 30 0 30 0 0 75 c0 41 3 75 8 75 4 0 27 -34 50 -75
43 -73 45 -75 83 -75 l39 0 0 130 0 130 -30 0 -30 0 0 -75 c0 -41 -3 -75 -7
-75 -5 0 -28 34 -51 75 -43 73 -45 75 -83 75 l-39 0 0 -130z"/>
<path d="M1800 700 l0 -130 66 0 c104 0 154 33 169 112 9 47 -16 103 -57 128
-25 15 -50 20 -105 20 l-73 0 0 -130z m139 70 c31 -16 46 -65 31 -100 -15 -36
-37 -50 -79 -50 l-31 0 0 80 0 80 31 0 c17 0 38 -4 48 -10z"/>
<path d="M2192 778 c-11 -29 -32 -84 -46 -122 -14 -37 -26 -72 -26 -77 0 -5
13 -9 28 -9 21 0 32 7 40 25 10 22 18 25 60 25 42 0 50 -3 60 -25 9 -19 19
-25 42 -25 16 0 30 3 30 7 0 3 -21 62 -47 129 l-48 124 -37 0 c-35 0 -37 -2
-56 -52z m78 -90 c0 -11 -7 -18 -18 -18 -28 0 -31 8 -20 42 10 29 12 30 25 13
7 -11 13 -27 13 -37z"/>
<path d="M2480 700 l0 -130 30 0 30 0 0 77 c0 88 3 88 58 -8 36 -61 39 -64 80
-67 l42 -3 0 130 0 131 -30 0 -30 0 0 -69 c0 -39 -4 -72 -8 -75 -5 -3 -28 28
-52 69 -41 73 -43 75 -81 75 l-39 0 0 -130z"/>
<path d="M2810 699 l0 -131 81 4 c78 3 82 4 115 40 42 47 51 81 33 132 -22 62
-65 86 -155 86 l-74 0 0 -131z m139 71 c31 -16 46 -65 31 -100 -15 -36 -37
-50 -79 -50 l-31 0 0 80 0 80 31 0 c17 0 38 -4 48 -10z"/>
<path d="M3140 700 l0 -130 96 0 c93 0 95 1 92 23 -3 20 -9 22 -66 25 -62 3
-63 3 -60 30 3 25 7 27 51 30 39 3 47 6 47 23 0 20 -4 22 -60 23 -30 1 -35 5
-38 28 -3 27 -2 27 60 30 57 3 63 5 66 26 3 21 1 22 -92 22 l-96 0 0 -130z"/>
<path d="M3430 823 c0 -4 21 -63 47 -131 l47 -123 35 3 c36 3 36 3 83 123 26
66 47 124 48 128 0 5 -14 7 -32 5 -30 -3 -34 -8 -63 -80 -16 -43 -33 -78 -37
-78 -3 0 -20 35 -36 78 -28 71 -33 77 -61 80 -17 2 -31 0 -31 -5z"/>
<path d="M3790 700 l0 -130 29 0 c29 0 30 2 33 53 l3 52 48 3 c39 3 47 6 47
23 0 10 -6 20 -12 20 -7 1 -20 3 -28 4 -8 1 -25 3 -37 4 -17 1 -23 7 -23 26 0
23 4 24 63 27 56 3 62 5 65 26 3 21 1 22 -92 22 l-96 0 0 -130z"/>
<path d="M4070 700 l0 -130 95 0 c94 0 95 0 95 25 0 23 -4 24 -62 27 -60 3
-63 4 -63 28 0 23 4 25 53 28 44 3 52 6 52 23 0 15 -7 19 -32 21 -18 0 -37 2
-43 3 -5 2 -16 3 -23 4 -8 1 -12 10 -10 24 3 20 9 22 66 25 58 3 62 4 62 27 0
25 -1 25 -95 25 l-95 0 0 -130z"/>
<path d="M4670 805 c0 -22 4 -25 35 -25 l35 0 0 -105 0 -105 30 0 30 0 0 105
0 105 35 0 c31 0 35 3 35 25 l0 25 -100 0 -100 0 0 -25z"/>
</g>
</svg>
